<?xml version="1.0" encoding="utf-8"?>
<!-- Generator: Adobe Illustrator 27.5.0, SVG Export Plug-In . SVG Version: 6.00 Build 0)  -->
<svg version="1.1" id="Layer_1" xmlns="http://www.w3.org/2000/svg" xmlns:xlink="http://www.w3.org/1999/xlink" x="0px" y="0px"
	 viewBox="0 0 2500 2500" style="enable-background:new 0 0 2500 2500;" xml:space="preserve">
<rect x="0" y="0" style="fill:#FFFFFF;" width="2500" height="2500"/>
<g>
	<g>
		<g>
			
				<linearGradient id="SVGID_1_" gradientUnits="userSpaceOnUse" x1="-700.2584" y1="1323.8558" x2="-218.9225" y2="2995.6328" gradientTransform="matrix(-0.9706 0.2409 -0.2409 -0.9706 1292.7275 3597.0862)">
				<stop  offset="0" style="stop-color:#222631"/>
				<stop  offset="1" style="stop-color:#FFFF"/>
			</linearGradient>
			<path style="fill:url(#SVGID_1_);" d="M2050.635,1318.304c-89.854,256.929,84.264,598.18-337.636,683.76
				c-153.173,31.07-264.035-43.292-412.225,44.378c-262.239,155.142-419.129,141.941-532.222,22.612
				c-84.728-89.4-83.702-209.401-169.329-258.559c-185.481-106.483-234.528-265.832-193.35-457.114
				c21.65-100.572,109.604-168.549,163.747-236.542c63.416-79.637,85.012-156.94,115.471-237.959
				c135.665-360.85,435.387-447.49,659.323-423.454c188.942,20.279,311.267,162.684,370.46,272.834
				C1835.583,952.884,2189.541,921.117,2050.635,1318.304z M2153.305,1460.424c-0.291-28.412-23.559-51.207-51.97-50.916
				c-28.412,0.292-51.208,23.558-50.917,51.97c0.29,28.409,23.56,51.207,51.97,50.917
				C2130.801,1512.104,2153.596,1488.835,2153.305,1460.424z M1505.725,2093.87c-36.32-35.583-94.61-34.986-130.193,1.334
				c-35.583,36.321-34.986,94.61,1.334,130.193c36.319,35.583,94.609,34.986,130.193-1.333
				C1542.644,2187.744,1542.045,2129.455,1505.725,2093.87z M365.622,993.985c14.572,14.572,38.199,14.572,52.773,0
				c14.571-14.572,14.571-38.2,0-52.773c-14.573-14.572-38.2-14.572-52.773,0C351.049,955.785,351.049,979.412,365.622,993.985z
				 M1777.609,683.951c-4.732,32.373,17.678,62.456,50.053,67.187c32.375,4.731,62.455-17.678,67.186-50.053
				c4.732-32.373-17.678-62.454-50.053-67.186C1812.422,629.167,1782.342,651.576,1777.609,683.951z M470.172,978.743
				c5.703,39.091,42.02,66.16,81.113,60.455c39.093-5.705,66.16-42.02,60.455-81.112c-5.703-39.091-42.02-66.158-81.113-60.455
				C491.536,903.335,464.469,939.65,470.172,978.743z M1715.223,597.736c-2.479,16.962,9.262,32.722,26.225,35.201
				c16.961,2.479,32.722-9.262,35.2-26.223c2.48-16.962-9.262-32.722-26.224-35.202
				C1733.463,569.033,1717.702,580.773,1715.223,597.736z M421.945,1770.754c-5.653-13.827-21.447-20.453-35.274-14.798
				c-13.827,5.653-20.453,21.446-14.799,35.274c5.653,13.827,21.446,20.453,35.274,14.798
				C420.974,1800.375,427.599,1784.581,421.945,1770.754z M426.102,1898.604c9.495,36.647,46.899,58.658,83.547,49.163
				c36.647-9.494,58.658-46.898,49.163-83.546c-9.494-36.647-46.9-58.658-83.546-49.164
				C438.619,1824.552,416.607,1861.957,426.102,1898.604z"/>
		</g>
		<g>
			<path style="fill:#FFFFFF;" d="M743.371,921.237v717.772c0,49.278,39.948,89.225,89.225,89.225h877.675
				c49.278,0,89.225-39.948,89.225-89.225V921.237H743.371z"/>
			<path style="fill:#222631;" d="M1799.496,954.531H743.372V837.107c0-49.278,39.947-89.225,89.225-89.225h877.673
				c49.278,0,89.225,39.948,89.225,89.225V954.531z"/>
			<g>
				<g>
					<path style="fill:#222631;" d="M947.635,1108.398h-67.732c-10.747,0-19.46-8.712-19.46-19.459v-67.732
						c0-10.747,8.712-19.46,19.46-19.46h67.732c10.747,0,19.46,8.712,19.46,19.46v67.732
						C967.094,1099.686,958.382,1108.398,947.635,1108.398z"/>
					<path style="fill:#222631;" d="M1090.701,1108.398h-67.732c-10.747,0-19.459-8.712-19.459-19.459v-67.732
						c0-10.747,8.712-19.46,19.459-19.46h67.732c10.747,0,19.459,8.712,19.459,19.46v67.732
						C1110.16,1099.686,1101.448,1108.398,1090.701,1108.398z"/>
					<path style="fill:#222631;" d="M1233.767,1108.398h-67.732c-10.747,0-19.459-8.712-19.459-19.459v-67.732
						c0-10.747,8.712-19.46,19.459-19.46h67.732c10.747,0,19.459,8.712,19.459,19.46v67.732
						C1253.226,1099.686,1244.514,1108.398,1233.767,1108.398z"/>
					<path style="fill:#222631;" d="M1376.833,1108.398h-67.732c-10.747,0-19.46-8.712-19.46-19.459v-67.732
						c0-10.747,8.712-19.46,19.46-19.46h67.732c10.747,0,19.46,8.712,19.46,19.46v67.732
						C1396.292,1099.686,1387.58,1108.398,1376.833,1108.398z"/>
					<path style="fill:#222631;" d="M1519.899,1108.398h-67.732c-10.747,0-19.46-8.712-19.46-19.459v-67.732
						c0-10.747,8.712-19.46,19.46-19.46h67.732c10.747,0,19.459,8.712,19.459,19.46v67.732
						C1539.358,1099.686,1530.646,1108.398,1519.899,1108.398z"/>
					<path style="fill:#222631;" d="M1662.965,1108.398h-67.732c-10.747,0-19.46-8.712-19.46-19.459v-67.732
						c0-10.747,8.712-19.46,19.46-19.46h67.732c10.747,0,19.46,8.712,19.46,19.46v67.732
						C1682.424,1099.686,1673.712,1108.398,1662.965,1108.398z"/>
				</g>
				<g>
					<path style="fill:#222631;" d="M947.635,1249.88h-67.732c-10.747,0-19.46-8.712-19.46-19.46v-67.732
						c0-10.747,8.712-19.459,19.46-19.459h67.732c10.747,0,19.46,8.712,19.46,19.459v67.732
						C967.094,1241.167,958.382,1249.88,947.635,1249.88z"/>
					<path style="fill:#222631;" d="M1090.701,1249.88h-67.732c-10.747,0-19.459-8.712-19.459-19.46v-67.732
						c0-10.747,8.712-19.459,19.459-19.459h67.732c10.747,0,19.459,8.712,19.459,19.459v67.732
						C1110.16,1241.167,1101.448,1249.88,1090.701,1249.88z"/>
					<path style="fill:#222631;" d="M1233.767,1249.88h-67.732c-10.747,0-19.459-8.712-19.459-19.46v-67.732
						c0-10.747,8.712-19.459,19.459-19.459h67.732c10.747,0,19.459,8.712,19.459,19.459v67.732
						C1253.226,1241.167,1244.514,1249.88,1233.767,1249.88z"/>
					<path style="fill:#222631;" d="M1376.833,1249.88h-67.732c-10.747,0-19.46-8.712-19.46-19.46v-67.732
						c0-10.747,8.712-19.459,19.46-19.459h67.732c10.747,0,19.46,8.712,19.46,19.459v67.732
						C1396.292,1241.167,1387.58,1249.88,1376.833,1249.88z"/>
					<path style="fill:#222631;" d="M1519.899,1249.88h-67.732c-10.747,0-19.46-8.712-19.46-19.46v-67.732
						c0-10.747,8.712-19.459,19.46-19.459h67.732c10.747,0,19.459,8.712,19.459,19.459v67.732
						C1539.358,1241.167,1530.646,1249.88,1519.899,1249.88z"/>
					<path style="fill:#222631;" d="M1662.965,1249.88h-67.732c-10.747,0-19.46-8.712-19.46-19.46v-67.732
						c0-10.747,8.712-19.459,19.46-19.459h67.732c10.747,0,19.46,8.712,19.46,19.459v67.732
						C1682.424,1241.167,1673.712,1249.88,1662.965,1249.88z"/>
				</g>
				<g>
					<path style="fill:#222631;" d="M947.635,1391.361h-67.732c-10.747,0-19.46-8.712-19.46-19.46v-67.732
						c0-10.747,8.712-19.46,19.46-19.46h67.732c10.747,0,19.46,8.712,19.46,19.46v67.732
						C967.094,1382.649,958.382,1391.361,947.635,1391.361z"/>
					<path style="fill:#222631;" d="M1090.701,1391.361h-67.732c-10.747,0-19.459-8.712-19.459-19.46v-67.732
						c0-10.747,8.712-19.46,19.459-19.46h67.732c10.747,0,19.459,8.712,19.459,19.46v67.732
						C1110.16,1382.649,1101.448,1391.361,1090.701,1391.361z"/>
					<path style="fill:#6b7483;" d="M1233.767,1391.361h-67.732c-10.747,0-19.459-8.712-19.459-19.46v-67.732
						c0-10.747,8.712-19.46,19.459-19.46h67.732c10.747,0,19.459,8.712,19.459,19.46v67.732
						C1253.226,1382.649,1244.514,1391.361,1233.767,1391.361z"/>
					<path style="fill:#222631;" d="M1376.833,1391.361h-67.732c-10.747,0-19.46-8.712-19.46-19.46v-67.732
						c0-10.747,8.712-19.46,19.46-19.46h67.732c10.747,0,19.46,8.712,19.46,19.46v67.732
						C1396.292,1382.649,1387.58,1391.361,1376.833,1391.361z"/>
					<path style="fill:#222631;" d="M1519.899,1391.361h-67.732c-10.747,0-19.46-8.712-19.46-19.46v-67.732
						c0-10.747,8.712-19.46,19.46-19.46h67.732c10.747,0,19.459,8.712,19.459,19.46v67.732
						C1539.358,1382.649,1530.646,1391.361,1519.899,1391.361z"/>
					<path style="fill:#222631;" d="M1662.965,1391.361h-67.732c-10.747,0-19.46-8.712-19.46-19.46v-67.732
						c0-10.747,8.712-19.46,19.46-19.46h67.732c10.747,0,19.46,8.712,19.46,19.46v67.732
						C1682.424,1382.649,1673.712,1391.361,1662.965,1391.361z"/>
				</g>
				<g>
					<path style="fill:#222631;" d="M947.635,1532.843h-67.732c-10.747,0-19.46-8.712-19.46-19.46v-67.732
						c0-10.747,8.712-19.46,19.46-19.46h67.732c10.747,0,19.46,8.712,19.46,19.46v67.732
						C967.094,1524.13,958.382,1532.843,947.635,1532.843z"/>
					<path style="fill:#222631;" d="M1090.701,1532.843h-67.732c-10.747,0-19.459-8.712-19.459-19.46v-67.732
						c0-10.747,8.712-19.46,19.459-19.46h67.732c10.747,0,19.459,8.712,19.459,19.46v67.732
						C1110.16,1524.13,1101.448,1532.843,1090.701,1532.843z"/>
					<path style="fill:#222631;" d="M1233.767,1532.843h-67.732c-10.747,0-19.459-8.712-19.459-19.46v-67.732
						c0-10.747,8.712-19.46,19.459-19.46h67.732c10.747,0,19.459,8.712,19.459,19.46v67.732
						C1253.226,1524.13,1244.514,1532.843,1233.767,1532.843z"/>
					<path style="fill:#222631;" d="M1376.833,1532.843h-67.732c-10.747,0-19.46-8.712-19.46-19.46v-67.732
						c0-10.747,8.712-19.46,19.46-19.46h67.732c10.747,0,19.46,8.712,19.46,19.46v67.732
						C1396.292,1524.13,1387.58,1532.843,1376.833,1532.843z"/>
					<path style="fill:#222631;" d="M1519.899,1532.843h-67.732c-10.747,0-19.46-8.712-19.46-19.46v-67.732
						c0-10.747,8.712-19.46,19.46-19.46h67.732c10.747,0,19.459,8.712,19.459,19.46v67.732
						C1539.358,1524.13,1530.646,1532.843,1519.899,1532.843z"/>
					<path style="fill:#222631;" d="M1662.965,1532.843h-67.732c-10.747,0-19.46-8.712-19.46-19.46v-67.732
						c0-10.747,8.712-19.46,19.46-19.46h67.732c10.747,0,19.46,8.712,19.46,19.46v67.732
						C1682.424,1524.13,1673.712,1532.843,1662.965,1532.843z"/>
				</g>
				<g>
					<path style="fill:#222631;" d="M947.635,1674.324h-67.732c-10.747,0-19.46-8.712-19.46-19.459v-67.732
						c0-10.747,8.712-19.459,19.46-19.459h67.732c10.747,0,19.46,8.712,19.46,19.459v67.732
						C967.094,1665.612,958.382,1674.324,947.635,1674.324z"/>
					<path style="fill:#222631;" d="M1090.701,1674.324h-67.732c-10.747,0-19.459-8.712-19.459-19.459v-67.732
						c0-10.747,8.712-19.459,19.459-19.459h67.732c10.747,0,19.459,8.712,19.459,19.459v67.732
						C1110.16,1665.612,1101.448,1674.324,1090.701,1674.324z"/>
					<path style="fill:#222631;" d="M1233.767,1674.324h-67.732c-10.747,0-19.459-8.712-19.459-19.459v-67.732
						c0-10.747,8.712-19.459,19.459-19.459h67.732c10.747,0,19.459,8.712,19.459,19.459v67.732
						C1253.226,1665.612,1244.514,1674.324,1233.767,1674.324z"/>
					<path style="fill:#222631;" d="M1376.833,1674.324h-67.732c-10.747,0-19.46-8.712-19.46-19.459v-67.732
						c0-10.747,8.712-19.459,19.46-19.459h67.732c10.747,0,19.46,8.712,19.46,19.459v67.732
						C1396.292,1665.612,1387.58,1674.324,1376.833,1674.324z"/>
					<path style="fill:#222631;" d="M1519.899,1674.324h-67.732c-10.747,0-19.46-8.712-19.46-19.459v-67.732
						c0-10.747,8.712-19.459,19.46-19.459h67.732c10.747,0,19.459,8.712,19.459,19.459v67.732
						C1539.358,1665.612,1530.646,1674.324,1519.899,1674.324z"/>
					<path style="fill:#222631;" d="M1662.965,1674.324h-67.732c-10.747,0-19.46-8.712-19.46-19.459v-67.732
						c0-10.747,8.712-19.459,19.46-19.459h67.732c10.747,0,19.46,8.712,19.46,19.459v67.732
						C1682.424,1665.612,1673.712,1674.324,1662.965,1674.324z"/>
				</g>
			</g>
			<path style="fill:#FFFF;" d="M961.401,693.102L961.401,693.102c-23.825,0-43.138,19.314-43.138,43.138v78.003
				c0,23.825,19.314,43.138,43.138,43.138h0c23.825,0,43.138-19.314,43.138-43.138V736.24
				C1004.539,712.416,985.226,693.102,961.401,693.102z"/>
			<path style="fill:#FFFF;" d="M1102.824,693.102h-0.006c-23.825,0-43.138,19.314-43.138,43.138v78.003
				c0,23.825,19.314,43.138,43.138,43.138h0.006c23.825,0,43.138-19.314,43.138-43.138V736.24
				C1145.962,712.416,1126.649,693.102,1102.824,693.102z"/>
			<path style="fill:#FFFF;" d="M1440.048,693.102L1440.048,693.102c-23.825,0-43.138,19.314-43.138,43.138v78.003
				c0,23.825,19.314,43.138,43.138,43.138l0,0c23.825,0,43.138-19.314,43.138-43.138V736.24
				C1483.186,712.416,1463.873,693.102,1440.048,693.102z"/>
			<path style="fill:#FFFF;" d="M1581.467,693.102h-0.001c-23.825,0-43.138,19.314-43.138,43.138v78.003
				c0,23.825,19.314,43.138,43.138,43.138h0.001c23.825,0,43.138-19.314,43.138-43.138V736.24
				C1624.605,712.416,1605.292,693.102,1581.467,693.102z"/>
			<g>
				<g>
					<path style="fill:#6b7483;" d="M1758.378,827.034c-140.38,0-254.784,114.223-254.784,254.785
						c0,140.567,114.405,254.875,254.784,254.875c140.657,0,254.968-114.309,254.968-254.875
						C2013.346,941.257,1899.035,827.034,1758.378,827.034z"/>
				</g>
				<g>
					<path style="fill:#FFFFFF;" d="M1758.391,864.031c-119.999,0-217.794,97.64-217.794,217.795
						c0,120.159,97.795,217.872,217.794,217.872c120.236,0,217.951-97.713,217.951-217.872
						C1976.343,961.671,1878.627,864.031,1758.391,864.031z"/>
				</g>
				<g>
					<path style="fill:#222631;" d="M1758.463,1061.681c-11.119,0-20.18,9.047-20.18,20.18c0,11.134,9.062,20.188,20.18,20.188
						c11.141,0,20.195-9.054,20.195-20.188C1778.658,1070.728,1769.604,1061.681,1758.463,1061.681z"/>
				</g>
				<g>
					<path style="fill:#222631;" d="M1758.474,1091.674c-3.808,0-7.43-2.232-9.022-5.956c-2.128-4.98,0.184-10.743,5.164-12.871
						l119.467-51.056c4.978-2.129,10.743,0.183,12.872,5.164c2.128,4.98-0.184,10.743-5.164,12.871l-119.467,51.057
						C1761.068,1091.419,1759.76,1091.674,1758.474,1091.674z"/>
				</g>
				<g>
					<path style="fill:#222631;" d="M1758.479,1090.583c-3.045,0-6.001-1.598-7.603-4.439l-87.922-156.022
						c-2.363-4.195-0.879-9.51,3.314-11.874c4.195-2.363,9.51-0.879,11.874,3.315l87.922,156.022
						c2.363,4.195,0.879,9.51-3.315,11.874C1761.397,1090.221,1759.928,1090.583,1758.479,1090.583z"/>
				</g>
				<g>
					<g>
						<g>
							<path style="fill:#222631;" d="M1758.47,915.699c-3.912,0-7.083-3.171-7.083-7.083V885.19c0-3.912,3.171-7.082,7.083-7.082
								c3.911,0,7.083,3.171,7.083,7.082v23.427C1765.553,912.528,1762.382,915.699,1758.47,915.699z"/>
						</g>
					</g>
					<g>
						<g>
							<path style="fill:#222631;" d="M1758.47,1285.622c-3.912,0-7.083-3.171-7.083-7.083v-24.516c0-3.911,3.171-7.083,7.083-7.083
								c3.911,0,7.083,3.171,7.083,7.083v24.516C1765.553,1282.451,1762.382,1285.622,1758.47,1285.622z"/>
						</g>
					</g>
				</g>
				<g>
					<g>
						<g>
							<path style="fill:#222631;" d="M1924.636,1081.865c0-3.912,3.171-7.083,7.083-7.083h23.427c3.911,0,7.083,3.171,7.083,7.083
								c0,3.911-3.171,7.082-7.083,7.082h-23.427C1927.807,1088.947,1924.636,1085.776,1924.636,1081.865z"/>
						</g>
					</g>
					<g>
						<g>
							<path style="fill:#222631;" d="M1554.713,1081.865c0-3.912,3.171-7.083,7.083-7.083h24.516c3.911,0,7.083,3.171,7.083,7.083
								c0,3.911-3.171,7.082-7.083,7.082h-24.516C1557.883,1088.947,1554.713,1085.776,1554.713,1081.865z"/>
						</g>
					</g>
				</g>
			</g>
		</g>
	</g>
	<g>
		<path style="fill:#222631;" d="M562.656,1646.677c-12.28,46.463-35.832,149.397-30.183,288.488
			c0.362,8.921,21.514,7.562,22.561,14.799c0,0,19.309,5.631,28.318,2.127c9.028-3.502,4.956,37.334,17.274-6.306
			c17.623-62.432,61.25-190.426,80.559-269.401L562.656,1646.677z"/>
		<g>
			<path style="fill:#222631;" d="M552.36,1857.461c-7.958,24.855-18.937,48.09-33.411,115.001
				c-14.474,66.911-6.88,265.499-6.88,265.499l39.782,5.567c0,0,33.534-220.013,59.655-356.999
				C617.66,1854.257,559.629,1834.758,552.36,1857.461z"/>
			<g>
				<path style="fill:#6b7483;" d="M511.355,2235.285c0.436-1.762-0.95,0.773,12.036,1.301c4.922,0.2,13.173,0.324,19.61,0.396
					c5.281,0.059,11.405-10.073,11.405-10.073s6.612-1.242,12.194,19.522c6.705,4.814,32.771,19.778,42.572,26.804
					c5.798,4.156,2.655,20.231-9.736,19.266c-17.105-1.333-46.055-5.515-63.007-8.067c-20.867-3.141-32.121-5.035-32.036-11.275
					C504.46,2268.333,510.043,2240.584,511.355,2235.285z"/>
			</g>
		</g>
		<path style="fill:#222631;" d="M682.373,1144.661c19.634-20.002,26.18-31.738,23.863-74.077
			c-3.013-55.062-90.828-60.502-103.598-33.281C589.868,1064.524,621.686,1206.484,682.373,1144.661z"/>
		<path style="fill:#FFE7C0;" d="M630.716,1181.525v58.134c-14.019,16.388-41.125,23.409-64.402,16.59l15.844-114.996
			C582.158,1141.252,625.773,1157.531,630.716,1181.525z"/>
		<path style="fill:#222631;" d="M703.281,1089.58c0,0-5.912,50.295,14.746,66.175c15.017,11.543,11.8,33.389,11.8,33.389
			s-5.749,6.328-32.424,10.991c-26.674,4.663-84.71-20.627-84.411-22.812C613.292,1175.137,608.624,1070.418,703.281,1089.58z"/>
		<path style="fill:#FFE7C0;" d="M626.146,1207.132c0,0,31.05,11.543,45.837,5.649s22.137-62.247,23.527-77.021
			c1.893-20.114-5.708-46.277-13.868-55.236C659.732,1056.467,539.055,1098.337,626.146,1207.132z"/>
		<path style="fill:#FFFFFF;" d="M569.45,1422.01c1.325,8.113,2.498,15.813,3.425,22.712c4.647,34.596,1.91,73.698,1.869,88.336
			c-0.041,14.637,117.944,31.183,118.009,7.668c0.065-23.515,1.093-90.589,8.954-118.349L569.45,1422.01z"/>
		<g>
			<path style="fill:#F7D9BC;" d="M884.956,1342.808c-13.222,4.327-18.41,14.935-27.617,16.474
				c-42.455,7.096-118.758,18.567-144.495,26.17c-25.737,7.602-33.345,44.447,2.294,40.925
				c35.638-3.523,133.675-48.631,149.285-46.476c8.639,1.193,18.704-1.797,31.411-5.76
				C906.039,1370.957,930.871,1327.781,884.956,1342.808z"/>
		</g>
		<path style="fill:#FFFFFF;" d="M571.579,1435.597c49.67-3.297,96.984-5.605,127.583-0.9c2.984-14.978,6.973-26.96,12.265-33.64
			c22.686-28.667,25.403-65.503,4.389-91.597c-20.992-26.091-79.041-64.383-85.299-71.948c-19.156,2.907-42.929,13.295-62.517,5.257
			c-9.326,16.042-16.251,38.87-14.32,67.749C554.952,1329.542,562.814,1387.868,571.579,1435.597z"/>
		<path style="fill:#222631;" d="M576.252,1743.936l116.509-25.839c5.825-59.706,5.969-89.947,3.95-114.382
			c-1.205-14.541-3.001-37.701-3.958-62.989c-25.182,1.112-84.311-0.398-118.009-7.668c-3.701,19.394-8.825,42.557-19.719,65.916
			C527.873,1657.19,535.894,1719.644,576.252,1743.936z"/>
		<path style="fill:#222631;" d="M683.073,1961.686c0,0,19.986-2.312,26.936-9.042c6.95-6.73,13.712-9.125,13.43-54.472
			c-0.31-49.815-26.788-218.498-38.618-287.731c-11.83-69.233-122.123,60.109-122.123,60.109s-4.844,113.558,89.42,278.501
			C656.546,1956.806,679.303,1955.421,683.073,1961.686z"/>
		<path style="fill:#FFE7C0;" d="M727.013,1442.893c-22.382-36.376-72.012-111.159-94.515-154.598l-45.751,39.156
			c20.454,34.963,58.954,100.399,113.283,150.316C730.314,1505.606,748.648,1478.059,727.013,1442.893z"/>
		<path style="fill:#FFFF;" d="M919.419,1317.387l22.172,7.35c3.072,1.018,4.559,4.497,3.171,7.421L907.02,1411.7
			c-1.576,3.325-4.427,4.528-7.216,3.58c-0.885-0.299-7.799-6.59-17.88-11.458c-3.656-1.762-4.815-7.318-2.562-12.104l33.486-71.503
			C914.005,1317.744,916.828,1316.529,919.419,1317.387z"/>
		<path style="fill:#FFE7C0;" d="M894.985,1404.103l-13.296-17.836c0,0-6.483-2.867-7.783,5.026
			c-0.86,5.221,1.069,31.568,1.069,31.568S894.498,1413.345,894.985,1404.103z"/>
		<path style="fill:#FFE7C0;" d="M920.304,1383.613c-13.977,6.087-27.989,16.029-35.421,17.925
			c-45.711,11.634-131.496,32.305-158.92,42.921c-27.424,10.616-32.421,51.539,6.184,44.489
			c38.605-7.051,141.597-64.6,158.86-64.177c6.466,0.159,16.158-0.4,27.297-5.272
			C931.668,1413.655,931.583,1378.701,920.304,1383.613z"/>
		<path style="fill:#222631;" d="M665.065,1208.902c0.846,12.508,1.3,14.271-0.867,29.132c-13.281-3.813-42.092-7.057-55.947-6.959
			c-28.216,0.198-40.008-2.082-50.358-8.414c-17.307-10.589-27.074-30.025-26.356-50.301c1.679-47.382-26.039-91.966,22.6-129.621
			c28.696-22.223,85.664-45.055,111.414-15.315c25.75,29.743,32.405,60.645,1.422,87.82
			C634.751,1143.5,662.154,1165.271,665.065,1208.902z"/>
		<g>
			<path style="fill:#222631;" d="M659.918,1883.383c-2.7,25.957-8.688,50.949-9.154,119.406
				c-0.466,68.457,47.633,261.282,47.633,261.282l40.079-2.698c0,0-12.229-222.218-14.712-361.65
				C723.179,1866.876,662.385,1859.673,659.918,1883.383z"/>
			<g>
				<path style="fill:#6b7483;" d="M696.48,2258.538c0.251-1.797-0.865,0.868,12.106,0.042c8.95-0.57,28.845-2.535,28.845-2.535
					s7.985,3.743,15.154,7.834c7.169,4.091,39.328,17.981,49.807,23.949c6.198,3.531,4.735,20.736-7.68,20.174
					c-10.998-0.498-51.057-2.414-68.182-3.189c-21.081-0.955-32.47-1.668-33.035-7.883
					C693.058,2292.124,695.726,2263.944,696.48,2258.538z"/>
			</g>
			<path style="fill:#6b7483;" d="M727.044,2259.678c0,0,4.705-15.556,9.94-17.455c5.235-1.899,14.557,22.825,22.848,30.884
				C768.123,2281.166,737.196,2284.173,727.044,2259.678z"/>
		</g>
		<path style="fill:#FFFFFF;" d="M664.474,1320.066c-1.068-4.344-2.55-8.713-4.484-13.03c-13.054-29.127-41.299-44.823-63.09-35.057
			c-21.79,9.765-28.389,40.892-1.312,85.047C630.087,1327.548,664.474,1320.066,664.474,1320.066z"/>
	</g>
</g>
</svg>
