<?xml version="1.0" standalone="no"?>
<!DOCTYPE svg PUBLIC "-//W3C//DTD SVG 20010904//EN"
 "http://www.w3.org/TR/2001/REC-SVG-20010904/DTD/svg10.dtd">
<svg version="1.0" xmlns="http://www.w3.org/2000/svg"
 width="155.000000pt" height="155.000000pt" viewBox="0 0 155.000000 155.000000"
 preserveAspectRatio="xMidYMid meet">
<metadata>
Created by potrace 1.14, written by Peter Selinger 2001-2017
</metadata>
<g transform="translate(0.000000,155.000000) scale(0.100000,-0.100000)"
fill="#000000" stroke="none">
<path d="M420 1440 c-5 -3 -9 -315 -8 -693 l0 -687 209 0 209 0 0 338 0 338
215 -1 c160 0 216 3 219 12 3 7 1 15 -4 18 -6 3 -104 6 -220 5 l-210 0 2 312
3 312 28 7 c24 6 27 5 27 -17 0 -13 5 -24 10 -24 6 0 10 12 10 26 0 17 4 23
12 18 7 -5 25 -7 41 -6 27 2 29 0 25 -28 -3 -16 -1 -30 4 -30 4 0 8 14 8 30 0
28 2 30 39 30 34 0 39 -3 36 -20 -2 -11 0 -20 6 -20 5 0 9 8 9 19 0 15 8 19
39 19 37 1 40 -1 44 -31 4 -30 4 -30 5 6 2 27 5 36 14 31 7 -5 25 -7 40 -6 25
2 27 0 24 -28 -2 -17 0 -33 5 -36 5 -3 9 11 9 30 0 35 1 36 41 36 40 0 41 -1
37 -30 -3 -17 -1 -33 4 -36 4 -3 8 13 8 36 0 37 2 40 19 30 13 -6 22 -7 26 0
3 5 13 6 21 3 12 -4 15 -15 11 -40 -4 -24 -2 -33 6 -30 7 2 11 17 9 36 -3 27
0 32 15 31 36 -4 44 0 41 22 l-3 21 -538 1 c-297 1 -543 -1 -547 -4z m115 -57
c0 -6 3 -15 8 -19 4 -4 7 5 7 20 0 22 3 25 16 18 9 -5 25 -7 35 -5 14 4 19 0
19 -16 0 -11 5 -21 11 -21 6 0 8 8 4 19 -7 23 5 33 25 21 8 -5 22 -5 32 1 15
8 18 6 18 -16 0 -14 5 -25 10 -25 6 0 10 9 10 21 0 16 5 20 27 17 l28 -3 0
-650 0 -650 -41 -3 -41 -3 0 203 c-1 279 0 257 -23 251 -19 -5 -20 -14 -20
-229 l0 -224 -45 0 -45 0 0 509 c0 507 0 510 -24 600 -35 131 -40 136 -61 66
-9 -32 -17 -66 -18 -77 -1 -10 -4 -18 -8 -18 -6 0 -6 163 0 226 1 15 76 2 76
-13z m-1 -190 c16 -57 16 -58 -6 -75 -17 -12 -19 -19 -11 -30 7 -9 11 -131 12
-385 1 -319 -1 -372 -14 -377 -15 -5 -19 4 -16 37 1 9 -3 17 -8 17 -6 0 -10
-3 -10 -7 4 -22 -2 -43 -11 -43 -6 0 -10 133 -10 380 0 216 4 380 9 380 14 0
16 -46 16 -322 0 -142 3 -258 6 -258 4 0 7 132 7 293 0 160 3 300 7 311 7 16
6 17 -14 6 -13 -6 -24 -10 -26 -8 -7 8 30 138 41 138 6 0 19 -26 28 -57z m25
-474 c1 -250 -2 -388 -8 -385 -12 8 -14 776 -1 776 4 0 9 -176 9 -391z m-2
-415 c-8 -8 -88 -11 -92 -4 -3 5 9 10 27 12 33 3 72 -2 65 -8z m0 -30 c-9 -9
-97 -11 -97 -2 0 4 23 8 52 8 28 0 49 -3 45 -6z m-27 -34 c0 -5 -14 -7 -31 -5
-45 6 -49 15 -6 15 21 0 37 -4 37 -10z m28 -77 l3 -53 -50 0 -51 0 0 54 0 54
48 -1 47 -2 3 -52z"/>
<path d="M484 445 c-1 -30 1 -55 5 -55 3 0 7 25 9 55 1 30 -1 55 -5 55 -5 0
-9 -25 -9 -55z"/>
<path d="M890 1339 c0 -5 5 -7 10 -4 6 3 10 8 10 11 0 2 -4 4 -10 4 -5 0 -10
-5 -10 -11z"/>
<path d="M1075 1340 c3 -5 8 -10 11 -10 2 0 4 5 4 10 0 6 -5 10 -11 10 -5 0
-7 -4 -4 -10z"/>
</g>
</svg>
